# xmcd CD database file generated by Grip 3.2.0
# 
# Track frame offsets:
#       150
#       18984
#       42189
#       59772
#       89704
#       102326
#       114262
#       139149
#       171109
# 
# Disc length: 2381 seconds
# 
# Revision: 2
# Processed by: cddbd v1.5.1PL0 Copyright (c) Steve Scherf et al.
# Submitted via: Grip 3.2.0
# 
DISCID=79094b09
DTITLE=Bad News Reunion - Live im Logo
DYEAR=2002
DGENRE=Blues
TTITLE0=Bad News
TTITLE1=The Thrill Is Gone
TTITLE2=Water In My Eyes
TTITLE3=Like A Rolling Stone
TTITLE4=Cinnamon Girl
TTITLE5=I'll Go Crazy
TTITLE6=Young Girl Blues
TTITLE7=Coming Into Los Angeles
TTITLE8=The Fade-Out
EXTD=
EXTT0=
EXTT1=
EXTT2=
EXTT3=
EXTT4=
EXTT5=
EXTT6=
EXTT7=
EXTT8=
PLAYORDER=
